<svg width="914" height="378" xmlns="http://www.w3.org/2000/svg" xmlns:xlink="http://www.w3.org/1999/xlink" xml:space="preserve" overflow="hidden"><g transform="translate(-183 -171)"><path d="M183 171 636 171 636 549 183 549Z" fill="#FFFFFF"/><path d="M262.5 510.5 622.5 510.5M262.5 464.5 622.5 464.5M262.5 419.5 622.5 419.5M262.5 374.5 622.5 374.5M262.5 328.5 622.5 328.5M262.5 283.5 622.5 283.5M262.5 238.5 622.5 238.5" stroke="#D9D9D9" stroke-linejoin="round" stroke-miterlimit="10" fill="none"/><path d="M262.5 238.5 622.5 238.5 622.5 510.5 262.5 510.5Z" stroke="#000000" stroke-linejoin="round" stroke-miterlimit="10" fill="none"/><path d="M370.5 458.5 514.5 458.5 514.5 510.5 370.5 510.5Z" stroke="#5997D0" stroke-linejoin="round" stroke-miterlimit="10" fill="#203864"/><path d="M370.5 395.5 514.5 395.5 514.5 458.5 370.5 458.5Z" stroke="#E87A30" stroke-linejoin="round" stroke-miterlimit="10" fill="#ED7D31"/><path d="M370.5 284.5 514.5 284.5 514.5 395.5 370.5 395.5Z" stroke="#A1A1A1" stroke-linejoin="round" stroke-miterlimit="10" fill="#66FFCC"/><text fill="#FFFFFF" font-family="Calibri,Calibri_MSFontService,sans-serif" font-weight="700" font-size="13" transform="translate(427.04 489)">112</text><text fill="#FFFFFF" font-family="Calibri,Calibri_MSFontService,sans-serif" font-weight="700" font-size="13" transform="translate(446.807 489)">,</text><text fill="#FFFFFF" font-family="Calibri,Calibri_MSFontService,sans-serif" font-weight="700" font-size="13" transform="translate(450.158 489)">9</text><text font-family="Calibri,Calibri_MSFontService,sans-serif" font-weight="700" font-size="13" transform="translate(427.04 432)">138</text><text font-family="Calibri,Calibri_MSFontService,sans-serif" font-weight="700" font-size="13" transform="translate(446.807 432)">,</text><text font-family="Calibri,Calibri_MSFontService,sans-serif" font-weight="700" font-size="13" transform="translate(450.158 432)">9</text><text font-family="Calibri,Calibri_MSFontService,sans-serif" font-weight="700" font-size="13" transform="translate(427.04 345)">245</text><text font-family="Calibri,Calibri_MSFontService,sans-serif" font-weight="700" font-size="13" transform="translate(446.807 345)">,</text><text font-family="Calibri,Calibri_MSFontService,sans-serif" font-weight="700" font-size="13" transform="translate(450.158 345)">3</text><text font-family="Calibri,Calibri_MSFontService,sans-serif" font-weight="700" font-size="14" transform="translate(242.35 514)">0</text><text font-family="Calibri,Calibri_MSFontService,sans-serif" font-weight="700" font-size="14" transform="translate(228.16 468)">100</text><text font-family="Calibri,Calibri_MSFontService,sans-serif" font-weight="700" font-size="14" transform="translate(228.16 423)">200</text><text font-family="Calibri,Calibri_MSFontService,sans-serif" font-weight="700" font-size="14" transform="translate(228.16 378)">300</text><text font-family="Calibri,Calibri_MSFontService,sans-serif" font-weight="700" font-size="14" transform="translate(228.16 333)">400</text><text font-family="Calibri,Calibri_MSFontService,sans-serif" font-weight="700" font-size="14" transform="translate(228.16 287)">500</text><text font-family="Calibri,Calibri_MSFontService,sans-serif" font-weight="700" font-size="14" transform="translate(228.16 242)">600</text><text font-family="Calibri,Calibri_MSFontService,sans-serif" font-weight="700" font-size="16" transform="matrix(6.12323e-17 -1 1 6.12323e-17 211.31 460)">Electrical input </text><text font-family="Calibri,Calibri_MSFontService,sans-serif" font-weight="700" font-size="16" transform="matrix(6.12323e-17 -1 1 6.12323e-17 211.31 357)">(</text><text font-family="Calibri,Calibri_MSFontService,sans-serif" font-weight="700" font-size="16" transform="matrix(6.12323e-17 -1 1 6.12323e-17 211.31 352)">kWh</text><text font-family="Calibri,Calibri_MSFontService,sans-serif" font-weight="700" font-size="16" transform="matrix(6.12323e-17 -1 1 6.12323e-17 211.31 322)">/</text><text font-family="Calibri,Calibri_MSFontService,sans-serif" font-weight="700" font-size="16" transform="matrix(6.12323e-17 -1 1 6.12323e-17 211.31 315)">wafer</text><text font-family="Calibri,Calibri_MSFontService,sans-serif" font-weight="700" font-size="16" transform="matrix(6.12323e-17 -1 1 6.12323e-17 211.31 277)">)</text><text font-family="Calibri,Calibri_MSFontService,sans-serif" font-weight="700" font-size="16" transform="translate(310.54 200)">Electrical consumption breakdown </text><text font-family="Calibri,Calibri_MSFontService,sans-serif" font-weight="700" font-size="16" transform="translate(349.99 220)">per wafer </text><text font-family="Calibri,Calibri_MSFontService,sans-serif" font-weight="700" font-size="16" transform="translate(417.638 220)">(</text><text font-family="Calibri,Calibri_MSFontService,sans-serif" font-weight="700" font-size="16" transform="translate(422.623 220)">kWh</text><text font-family="Calibri,Calibri_MSFontService,sans-serif" font-weight="700" font-size="16" transform="translate(453.388 220)">/</text><text font-family="Calibri,Calibri_MSFontService,sans-serif" font-weight="700" font-size="16" transform="translate(460.263 220)">wafer</text><text font-family="Calibri,Calibri_MSFontService,sans-serif" font-weight="700" font-size="16" transform="translate(498.349 220)">)</text><path d="M210.5 525.5 217.5 525.5 217.5 532.5 210.5 532.5Z" stroke="#5997D0" stroke-linejoin="round" stroke-miterlimit="10" fill="#203864"/><text font-family="Calibri,Calibri_MSFontService,sans-serif" font-weight="700" font-size="13" transform="translate(220.78 533)">RAW WF PROD</text><text font-family="Calibri,Calibri_MSFontService,sans-serif" font-weight="700" font-size="13" transform="translate(301.973 533)">.</text><path d="M312.5 525.5 319.5 525.5 319.5 532.5 312.5 532.5Z" stroke="#E87A30" stroke-linejoin="round" stroke-miterlimit="10" fill="#ED7D31"/><text font-family="Calibri,Calibri_MSFontService,sans-serif" font-weight="700" font-size="13" transform="translate(323.13 533)">WF PROCESSING STEPS</text><path d="M455.5 525.5 462.5 525.5 462.5 532.5 455.5 532.5Z" stroke="#A1A1A1" stroke-linejoin="round" stroke-miterlimit="10" fill="#66FFCC"/><text font-family="Calibri,Calibri_MSFontService,sans-serif" font-weight="700" font-size="13" transform="translate(465.63 533)">CLNR FACILITIES </text><text font-family="Calibri,Calibri_MSFontService,sans-serif" font-weight="700" font-size="13" transform="translate(554.294 533)">&amp; </text><text font-family="Calibri,Calibri_MSFontService,sans-serif" font-weight="700" font-size="13" transform="translate(566.393 533)">INFRAS</text><text font-family="Calibri,Calibri_MSFontService,sans-serif" font-weight="700" font-size="13" transform="translate(605.729 533)">.</text><path d="M644 171 1097 171 1097 549 644 549Z" fill="#FFFFFF"/><path d="M718.5 510.5 1083.5 510.5M718.5 455.5 1083.5 455.5M718.5 400.5 1083.5 400.5M718.5 345.5 1083.5 345.5M718.5 290.5 1083.5 290.5M718.5 235.5 1083.5 235.5" stroke="#D9D9D9" stroke-linejoin="round" stroke-miterlimit="10" fill="none"/><path d="M718.5 235.5 1083.5 235.5 1083.5 510.5 718.5 510.5Z" stroke="#000000" stroke-linejoin="round" stroke-miterlimit="10" fill="none"/><path d="M828.5 456.5 973.5 456.5 973.5 510.5 828.5 510.5Z" stroke="#5997D0" stroke-linejoin="round" stroke-miterlimit="10" fill="#203864"/><path d="M828.5 391.5 973.5 391.5 973.5 456.5 828.5 456.5Z" stroke="#E87A30" stroke-linejoin="round" stroke-miterlimit="10" fill="#ED7D31"/><path d="M828.5 275.5 973.5 275.5 973.5 391.5 828.5 391.5Z" stroke="#A1A1A1" stroke-linejoin="round" stroke-miterlimit="10" fill="#66FFCC"/><text fill="#FFFFFF" font-family="Calibri,Calibri_MSFontService,sans-serif" font-weight="700" font-size="13" transform="translate(889.21 488)">0</text><text fill="#FFFFFF" font-family="Calibri,Calibri_MSFontService,sans-serif" font-weight="700" font-size="13" transform="translate(895.799 488)">,</text><text fill="#FFFFFF" font-family="Calibri,Calibri_MSFontService,sans-serif" font-weight="700" font-size="13" transform="translate(899.15 488)">48</text><text font-family="Calibri,Calibri_MSFontService,sans-serif" font-weight="700" font-size="13" transform="translate(889.21 429)">0</text><text font-family="Calibri,Calibri_MSFontService,sans-serif" font-weight="700" font-size="13" transform="translate(895.799 429)">,</text><text font-family="Calibri,Calibri_MSFontService,sans-serif" font-weight="700" font-size="13" transform="translate(899.15 429)">60</text><text font-family="Calibri,Calibri_MSFontService,sans-serif" font-weight="700" font-size="13" transform="translate(889.21 338)">1</text><text font-family="Calibri,Calibri_MSFontService,sans-serif" font-weight="700" font-size="13" transform="translate(895.799 338)">,</text><text font-family="Calibri,Calibri_MSFontService,sans-serif" font-weight="700" font-size="13" transform="translate(899.15 338)">05</text><text font-family="Calibri,Calibri_MSFontService,sans-serif" font-weight="700" font-size="14" transform="translate(688.11 514)">0</text><text font-family="Calibri,Calibri_MSFontService,sans-serif" font-weight="700" font-size="14" transform="translate(695.206 514)">,</text><text font-family="Calibri,Calibri_MSFontService,sans-serif" font-weight="700" font-size="14" transform="translate(698.815 514)">0</text><text font-family="Calibri,Calibri_MSFontService,sans-serif" font-weight="700" font-size="14" transform="translate(688.11 459)">0</text><text font-family="Calibri,Calibri_MSFontService,sans-serif" font-weight="700" font-size="14" transform="translate(695.206 459)">,</text><text font-family="Calibri,Calibri_MSFontService,sans-serif" font-weight="700" font-size="14" transform="translate(698.815 459)">5</text><text font-family="Calibri,Calibri_MSFontService,sans-serif" font-weight="700" font-size="14" transform="translate(688.11 404)">1</text><text font-family="Calibri,Calibri_MSFontService,sans-serif" font-weight="700" font-size="14" transform="translate(695.206 404)">,</text><text font-family="Calibri,Calibri_MSFontService,sans-serif" font-weight="700" font-size="14" transform="translate(698.815 404)">0</text><text font-family="Calibri,Calibri_MSFontService,sans-serif" font-weight="700" font-size="14" transform="translate(688.11 349)">1</text><text font-family="Calibri,Calibri_MSFontService,sans-serif" font-weight="700" font-size="14" transform="translate(695.206 349)">,</text><text font-family="Calibri,Calibri_MSFontService,sans-serif" font-weight="700" font-size="14" transform="translate(698.815 349)">5</text><text font-family="Calibri,Calibri_MSFontService,sans-serif" font-weight="700" font-size="14" transform="translate(688.11 294)">2</text><text font-family="Calibri,Calibri_MSFontService,sans-serif" font-weight="700" font-size="14" transform="translate(695.206 294)">,</text><text font-family="Calibri,Calibri_MSFontService,sans-serif" font-weight="700" font-size="14" transform="translate(698.815 294)">0</text><text font-family="Calibri,Calibri_MSFontService,sans-serif" font-weight="700" font-size="14" transform="translate(688.11 239)">2</text><text font-family="Calibri,Calibri_MSFontService,sans-serif" font-weight="700" font-size="14" transform="translate(695.206 239)">,</text><text font-family="Calibri,Calibri_MSFontService,sans-serif" font-weight="700" font-size="14" transform="translate(698.815 239)">5</text><text font-family="Calibri,Calibri_MSFontService,sans-serif" font-weight="700" font-size="16" transform="matrix(6.12323e-17 -1 1 6.12323e-17 675.04 449)">Electrical input </text><text font-family="Calibri,Calibri_MSFontService,sans-serif" font-weight="700" font-size="16" transform="matrix(6.12323e-17 -1 1 6.12323e-17 675.04 346)">(</text><text font-family="Calibri,Calibri_MSFontService,sans-serif" font-weight="700" font-size="16" transform="matrix(6.12323e-17 -1 1 6.12323e-17 675.04 341)">kWh</text><text font-family="Calibri,Calibri_MSFontService,sans-serif" font-weight="700" font-size="16" transform="matrix(6.12323e-17 -1 1 6.12323e-17 675.04 311)">/</text><text font-family="Calibri,Calibri_MSFontService,sans-serif" font-weight="700" font-size="16" transform="matrix(6.12323e-17 -1 1 6.12323e-17 675.04 304)">cm</text><text font-family="Calibri,Calibri_MSFontService,sans-serif" font-weight="700" font-size="16" transform="matrix(6.12323e-17 -1 1 6.12323e-17 675.04 284)">²</text><text font-family="Calibri,Calibri_MSFontService,sans-serif" font-weight="700" font-size="16" transform="matrix(6.12323e-17 -1 1 6.12323e-17 675.04 279)">)</text><text font-family="Calibri,Calibri_MSFontService,sans-serif" font-weight="700" font-size="16" transform="translate(776.17 198)">Electrical consumption breakdown </text><text font-family="Calibri,Calibri_MSFontService,sans-serif" font-weight="700" font-size="16" transform="translate(788.55 218)">per cm</text><text font-family="Calibri,Calibri_MSFontService,sans-serif" font-weight="700" font-size="16" transform="translate(834.206 218)">² </text><text font-family="Calibri,Calibri_MSFontService,sans-serif" font-weight="700" font-size="16" transform="translate(843.23 218)">of good die </text><text font-family="Calibri,Calibri_MSFontService,sans-serif" font-weight="700" font-size="16" transform="translate(921.534 218)">(</text><text font-family="Calibri,Calibri_MSFontService,sans-serif" font-weight="700" font-size="16" transform="translate(926.519 218)">kWh</text><text font-family="Calibri,Calibri_MSFontService,sans-serif" font-weight="700" font-size="16" transform="translate(957.284 218)">/</text><text font-family="Calibri,Calibri_MSFontService,sans-serif" font-weight="700" font-size="16" transform="translate(964.159 218)">cm</text><text font-family="Calibri,Calibri_MSFontService,sans-serif" font-weight="700" font-size="16" transform="translate(983.87 218)">²</text><text font-family="Calibri,Calibri_MSFontService,sans-serif" font-weight="700" font-size="16" transform="translate(989.277 218)">)</text><path d="M680.5 526.5 687.5 526.5 687.5 533.5 680.5 533.5Z" stroke="#5997D0" stroke-linejoin="round" stroke-miterlimit="10" fill="#203864"/><text font-family="Calibri,Calibri_MSFontService,sans-serif" font-weight="700" font-size="13" transform="translate(690.67 534)">RAW WF PROD</text><text font-family="Calibri,Calibri_MSFontService,sans-serif" font-weight="700" font-size="13" transform="translate(771.863 534)">.</text><path d="M782.5 526.5 789.5 526.5 789.5 533.5 782.5 533.5Z" stroke="#E87A30" stroke-linejoin="round" stroke-miterlimit="10" fill="#ED7D31"/><text font-family="Calibri,Calibri_MSFontService,sans-serif" font-weight="700" font-size="13" transform="translate(793.01 534)">WF PROCESSING STEPS</text><path d="M925.5 526.5 932.5 526.5 932.5 533.5 925.5 533.5Z" stroke="#A1A1A1" stroke-linejoin="round" stroke-miterlimit="10" fill="#66FFCC"/><text font-family="Calibri,Calibri_MSFontService,sans-serif" font-weight="700" font-size="13" transform="translate(935.51 534)">CLNR FACILITIES </text><text font-family="Calibri,Calibri_MSFontService,sans-serif" font-weight="700" font-size="13" transform="translate(1024.17 534)">&amp; </text><text font-family="Calibri,Calibri_MSFontService,sans-serif" font-weight="700" font-size="13" transform="translate(1036.27 534)">INFRAS</text><text font-family="Calibri,Calibri_MSFontService,sans-serif" font-weight="700" font-size="13" transform="translate(1075.61 534)">.</text></g></svg>